<?xml version="1.0" encoding="utf-8"?>
<!-- Generator: Adobe Illustrator 16.0.0, SVG Export Plug-In . SVG Version: 6.00 Build 0)  -->
<!DOCTYPE svg PUBLIC "-//W3C//DTD SVG 1.1//EN" "http://www.w3.org/Graphics/SVG/1.1/DTD/svg11.dtd">
<svg version="1.1"
	 id="svg2" xmlns:cc="http://creativecommons.org/ns#" xmlns:dc="http://purl.org/dc/elements/1.1/" xmlns:rdf="http://www.w3.org/1999/02/22-rdf-syntax-ns#" xmlns:svg="http://www.w3.org/2000/svg"
	 xmlns="http://www.w3.org/2000/svg" xmlns:xlink="http://www.w3.org/1999/xlink" x="0px" y="0px" width="297.45px"
	 height="337.342px" viewBox="0 0 297.45 337.342" enable-background="new 0 0 297.45 337.342" xml:space="preserve">
<title  id="title4">Slice 1</title>
<path fill="#D4B830" d="M0,0l27.071,303.62l121.472,33.722l121.811-33.771L297.45,0H0z M138.725,267.6
	c-92.583-18.464,0,0-92.935-18.45l-5.216-58.467c12.459,0,37.379,0,37.379,0l2.652,29.697l20.741,3.035V96.71l-42.319-0.001
	l-3.453-37.254h83.151V267.6z M253.797,96.694H198v38.132h52.479L240.159,249.15l-81.091,18.451v-38.819l46.284-8.426l4.484-48.294
	h-50.769V59.455h98.033L253.797,96.694z"/>
</svg>
