<svg id="svg" version="1.1" xmlns="http://www.w3.org/2000/svg" xmlns:xlink="http://www.w3.org/1999/xlink" width="400" height="400" viewBox="0, 0, 400,400"><g id="svgg"><path id="path0" d="M197.477 77.767 C 194.390 79.280,192.773 81.947,192.721 85.610 C 192.675 88.833,192.971 89.418,206.448 112.700 C 206.861 113.415,207.560 114.630,208.000 115.400 C 208.440 116.170,209.139 117.385,209.553 118.100 C 209.967 118.815,213.408 124.800,217.200 131.400 C 220.992 138.000,224.433 143.985,224.847 144.700 C 225.261 145.415,225.960 146.630,226.400 147.400 C 226.840 148.170,227.539 149.385,227.953 150.100 C 228.367 150.815,231.808 156.800,235.600 163.400 C 239.392 170.000,242.833 175.985,243.247 176.700 C 243.661 177.415,244.360 178.630,244.800 179.400 C 245.240 180.170,245.939 181.385,246.353 182.100 C 246.767 182.815,250.208 188.800,254.000 195.400 C 257.792 202.000,261.233 207.985,261.647 208.700 C 262.061 209.415,262.760 210.630,263.200 211.400 C 263.640 212.170,264.339 213.385,264.753 214.100 C 265.167 214.815,268.608 220.800,272.400 227.400 C 276.192 234.000,279.633 239.985,280.047 240.700 C 280.461 241.415,281.160 242.630,281.600 243.400 C 282.040 244.170,282.739 245.385,283.153 246.100 C 287.112 252.938,297.961 271.874,298.908 273.600 C 299.572 274.810,300.250 275.980,300.415 276.200 C 300.580 276.420,301.094 277.275,301.557 278.100 C 302.021 278.925,302.739 280.185,303.152 280.900 C 312.844 297.643,318.400 307.432,318.400 307.762 C 318.400 307.893,260.715 308.000,190.211 308.000 L 62.023 308.000 59.898 308.940 C 51.303 312.741,53.262 325.662,62.575 326.596 C 69.763 327.316,334.591 326.605,335.955 325.861 C 339.534 323.910,341.600 319.495,341.600 313.799 C 341.600 310.658,341.753 311.001,335.453 300.000 C 332.618 295.050,329.756 290.010,329.092 288.800 C 328.428 287.590,327.750 286.420,327.585 286.200 C 327.420 285.980,326.906 285.125,326.443 284.300 C 325.979 283.475,325.261 282.215,324.848 281.500 C 320.595 274.153,311.641 258.530,310.692 256.800 C 310.028 255.590,309.350 254.420,309.185 254.200 C 309.020 253.980,308.506 253.125,308.043 252.300 C 307.062 250.555,305.911 248.538,304.847 246.700 C 304.433 245.985,300.992 240.000,297.200 233.400 C 293.408 226.800,289.967 220.815,289.553 220.100 C 289.139 219.385,288.440 218.170,288.000 217.400 C 287.560 216.630,286.861 215.415,286.447 214.700 C 286.033 213.985,282.592 208.000,278.800 201.400 C 275.008 194.800,271.567 188.815,271.153 188.100 C 270.739 187.385,270.040 186.170,269.600 185.400 C 269.160 184.630,268.461 183.415,268.047 182.700 C 267.633 181.985,264.192 176.000,260.400 169.400 C 256.608 162.800,253.167 156.815,252.753 156.100 C 252.339 155.385,251.640 154.170,251.200 153.400 C 250.760 152.630,250.061 151.415,249.647 150.700 C 249.233 149.985,245.792 144.000,242.000 137.400 C 238.208 130.800,234.767 124.815,234.353 124.100 C 233.939 123.385,233.240 122.170,232.800 121.400 C 232.360 120.630,231.661 119.415,231.247 118.700 C 230.833 117.985,227.392 112.000,223.600 105.400 C 219.808 98.800,216.367 92.815,215.953 92.100 C 215.539 91.385,214.840 90.170,214.400 89.400 C 213.960 88.630,213.265 87.415,212.857 86.700 C 212.448 85.985,211.683 84.645,211.157 83.722 C 207.373 77.088,202.867 75.126,197.477 77.767 " stroke="none" fill="#53baf9" fill-rule="evenodd"></path><path id="path1" d="M171.598 126.974 C 167.935 127.977,166.444 129.488,162.297 136.400 C 160.647 139.150,157.808 143.830,155.989 146.800 C 154.169 149.770,151.651 153.910,150.393 156.000 C 149.134 158.090,146.614 162.230,144.793 165.200 C 142.971 168.170,140.451 172.310,139.193 174.400 C 137.934 176.490,135.414 180.630,133.593 183.600 C 131.771 186.570,129.251 190.710,127.993 192.800 C 126.734 194.890,124.214 199.030,122.393 202.000 C 120.571 204.970,118.050 209.110,116.789 211.200 C 114.277 215.365,106.733 227.768,104.016 232.200 C 103.071 233.740,101.268 236.710,100.009 238.800 C 98.750 240.890,96.229 245.030,94.408 248.000 C 92.587 250.970,90.782 253.940,90.397 254.600 C 90.011 255.260,88.068 258.474,86.078 261.741 C 79.477 272.581,80.380 280.386,88.600 283.548 C 90.990 284.467,259.852 283.973,261.728 283.041 C 268.874 279.492,268.985 270.156,261.922 266.636 L 259.843 265.600 183.121 265.600 C 116.946 265.600,106.400 265.522,106.400 265.029 C 106.400 264.716,107.324 262.961,108.453 261.129 C 109.583 259.298,110.820 257.260,111.202 256.600 C 111.585 255.940,113.387 252.970,115.208 250.000 C 117.029 247.030,119.549 242.890,120.807 240.800 C 122.066 238.710,124.586 234.570,126.407 231.600 C 128.229 228.630,130.749 224.490,132.007 222.400 C 133.266 220.310,135.786 216.170,137.607 213.200 C 139.429 210.230,141.949 206.090,143.207 204.000 C 144.466 201.910,146.986 197.770,148.807 194.800 C 150.629 191.830,153.149 187.690,154.407 185.600 C 155.666 183.510,158.186 179.370,160.007 176.400 C 161.829 173.430,164.349 169.290,165.607 167.200 C 166.866 165.110,169.386 160.970,171.207 158.000 C 173.029 155.030,175.551 150.890,176.811 148.800 C 178.072 146.710,179.759 143.925,180.559 142.611 C 182.970 138.654,183.440 136.631,182.611 133.777 C 181.456 129.806,178.981 127.748,174.000 126.616 C 173.670 126.541,172.589 126.702,171.598 126.974 M197.041 171.220 C 193.730 172.477,190.977 176.722,175.518 204.400 C 174.965 205.390,173.947 207.153,173.256 208.318 C 172.565 209.482,172.000 210.534,172.000 210.656 C 172.000 210.777,171.667 211.354,171.261 211.938 C 170.855 212.522,169.981 213.990,169.320 215.200 C 168.139 217.362,167.256 218.922,165.531 221.900 C 160.273 230.975,160.216 235.223,165.299 239.241 L 167.272 240.800 200.176 240.800 L 233.080 240.800 234.734 239.602 C 240.334 235.545,240.270 231.174,234.464 221.100 C 232.522 217.730,231.826 216.498,230.680 214.400 C 230.019 213.190,229.145 211.722,228.739 211.138 C 228.333 210.554,228.000 209.990,228.000 209.885 C 228.000 209.779,223.905 202.515,218.900 193.743 C 213.895 184.970,209.530 177.269,209.200 176.628 C 206.679 171.736,201.614 169.483,197.041 171.220 " stroke="none" fill="#aa13ea" fill-rule="evenodd"></path><path id="path2" d="M0.000 200.000 L 0.000 400.000 200.000 400.000 L 400.000 400.000 400.000 200.000 L 400.000 0.000 200.000 0.000 L 0.000 0.000 0.000 200.000 M206.305 77.155 C 208.720 78.394,210.531 81.053,217.506 93.600 C 218.057 94.590,218.639 95.580,218.800 95.800 C 218.961 96.020,219.545 97.010,220.097 98.000 C 220.980 99.585,236.985 127.477,238.803 130.600 C 239.187 131.260,243.327 138.460,248.003 146.600 C 252.679 154.740,256.819 161.940,257.203 162.600 C 257.587 163.260,261.727 170.460,266.403 178.600 C 271.079 186.740,275.219 193.940,275.603 194.600 C 275.987 195.260,280.127 202.460,284.803 210.600 C 289.479 218.740,293.619 225.940,294.003 226.600 C 294.387 227.260,298.527 234.460,303.203 242.600 C 307.879 250.740,312.019 257.940,312.403 258.600 C 312.787 259.260,316.927 266.460,321.603 274.600 C 326.279 282.740,330.421 289.940,330.808 290.600 C 342.279 310.146,342.868 311.514,342.056 316.733 C 341.267 321.811,339.330 324.855,335.761 326.625 C 333.627 327.684,64.602 328.067,61.012 327.017 C 51.925 324.356,51.220 312.193,59.915 308.099 C 61.317 307.439,68.508 307.394,189.300 307.296 C 259.645 307.239,317.200 307.087,317.200 306.958 C 317.200 306.642,304.190 283.777,297.195 271.800 C 296.809 271.140,292.672 263.940,288.000 255.800 C 283.328 247.660,279.191 240.460,278.805 239.800 C 277.240 237.121,261.028 208.871,260.097 207.200 C 259.545 206.210,258.961 205.220,258.800 205.000 C 258.639 204.780,258.055 203.790,257.503 202.800 C 256.620 201.215,240.615 173.323,238.797 170.200 C 238.413 169.540,234.273 162.340,229.597 154.200 C 224.921 146.060,220.781 138.860,220.397 138.200 C 220.013 137.540,215.873 130.340,211.197 122.200 C 206.521 114.060,202.379 106.860,201.991 106.200 C 192.591 90.189,191.616 88.007,192.143 84.162 C 193.021 77.758,200.380 74.117,206.305 77.155 M176.986 126.657 C 180.618 127.895,183.600 132.083,183.600 135.947 C 183.600 138.949,183.466 139.207,173.193 156.000 C 171.376 158.970,169.083 162.750,168.096 164.400 C 167.110 166.050,165.626 168.480,164.799 169.800 C 163.973 171.120,161.453 175.260,159.200 179.000 C 156.947 182.740,154.427 186.880,153.600 188.200 C 152.773 189.520,150.253 193.660,148.000 197.400 C 145.747 201.140,143.227 205.280,142.400 206.600 C 141.573 207.920,139.053 212.060,136.800 215.800 C 134.547 219.540,132.027 223.680,131.200 225.000 C 130.373 226.320,127.853 230.460,125.600 234.200 C 123.347 237.940,120.827 242.080,120.000 243.400 C 119.173 244.720,116.653 248.860,114.400 252.600 C 112.147 256.340,109.606 260.493,108.752 261.828 C 107.898 263.163,107.200 264.375,107.200 264.521 C 107.200 264.667,141.715 264.834,183.900 264.893 C 256.386 264.994,260.671 265.039,261.895 265.707 C 269.756 270.004,269.731 279.501,261.847 283.719 L 260.200 284.600 174.600 284.600 C 79.158 284.600,87.921 284.863,84.549 281.902 C 81.173 278.938,79.983 271.539,82.179 267.166 C 83.073 265.388,89.115 255.279,92.800 249.400 C 93.627 248.080,96.147 243.940,98.400 240.200 C 100.653 236.460,103.173 232.320,103.999 231.000 C 104.826 229.680,106.310 227.250,107.296 225.600 C 108.283 223.950,110.576 220.170,112.393 217.200 C 114.209 214.230,116.509 210.450,117.504 208.800 C 118.499 207.150,120.520 203.820,121.994 201.400 C 126.345 194.262,132.815 183.634,138.738 173.900 C 140.244 171.425,142.764 167.285,144.338 164.700 C 145.912 162.115,148.460 157.930,150.000 155.400 C 151.540 152.870,154.060 148.730,155.600 146.200 C 157.140 143.670,159.684 139.485,161.253 136.900 C 165.456 129.978,166.000 129.238,167.779 128.025 C 170.875 125.913,173.609 125.507,176.986 126.657 M203.659 170.614 C 206.894 171.716,208.033 173.401,221.497 197.000 C 240.627 230.529,239.599 228.562,239.595 231.600 C 239.590 235.398,236.619 239.976,233.353 241.218 C 232.247 241.639,169.738 241.768,167.668 241.354 C 166.027 241.025,163.448 238.766,162.113 236.487 C 159.939 232.778,160.488 229.459,164.408 222.600 C 164.911 221.720,166.437 219.020,167.799 216.600 C 191.169 175.081,193.343 171.634,196.849 170.513 C 198.841 169.877,201.616 169.918,203.659 170.614 " stroke="none" fill="#040404" fill-rule="evenodd"></path><path id="path3" d="M198.494 76.866 C 195.420 77.908,193.512 79.852,192.623 82.849 C 191.473 86.719,191.902 88.321,195.984 95.401 C 197.380 97.820,198.875 100.430,199.308 101.200 C 199.741 101.970,201.040 104.220,202.195 106.200 C 203.836 109.012,211.925 123.081,217.604 133.000 C 218.226 134.087,234.354 162.141,236.000 165.000 C 236.380 165.660,240.520 172.860,245.200 181.000 C 249.880 189.140,254.020 196.340,254.400 197.000 C 254.780 197.660,258.920 204.860,263.600 213.000 C 268.280 221.140,272.420 228.340,272.800 229.000 C 274.446 231.859,290.574 259.913,291.196 261.000 C 296.875 270.919,304.964 284.988,306.605 287.800 C 307.760 289.780,309.058 292.030,309.490 292.800 C 309.922 293.570,311.924 297.052,313.938 300.537 C 315.952 304.023,317.600 307.038,317.600 307.237 C 317.600 307.452,265.679 307.640,189.700 307.700 L 61.800 307.801 190.100 307.901 C 260.665 307.955,318.400 307.893,318.400 307.762 C 318.400 307.432,312.844 297.643,303.152 280.900 C 302.739 280.185,302.021 278.925,301.557 278.100 C 301.094 277.275,300.580 276.420,300.415 276.200 C 300.250 275.980,299.572 274.810,298.908 273.600 C 297.961 271.874,287.112 252.938,283.153 246.100 C 282.739 245.385,282.040 244.170,281.600 243.400 C 281.160 242.630,280.461 241.415,280.047 240.700 C 279.633 239.985,276.192 234.000,272.400 227.400 C 268.608 220.800,265.167 214.815,264.753 214.100 C 264.339 213.385,263.640 212.170,263.200 211.400 C 262.760 210.630,262.061 209.415,261.647 208.700 C 261.233 207.985,257.792 202.000,254.000 195.400 C 250.208 188.800,246.767 182.815,246.353 182.100 C 245.939 181.385,245.240 180.170,244.800 179.400 C 244.360 178.630,243.661 177.415,243.247 176.700 C 242.833 175.985,239.392 170.000,235.600 163.400 C 231.808 156.800,228.367 150.815,227.953 150.100 C 227.539 149.385,226.840 148.170,226.400 147.400 C 225.960 146.630,225.261 145.415,224.847 144.700 C 224.433 143.985,220.992 138.000,217.200 131.400 C 213.408 124.800,209.967 118.815,209.553 118.100 C 209.139 117.385,208.440 116.170,208.000 115.400 C 207.560 114.630,206.861 113.415,206.448 112.700 C 191.427 86.750,191.216 86.243,193.542 81.729 C 197.485 74.079,206.221 75.068,211.157 83.722 C 211.683 84.645,212.448 85.985,212.857 86.700 C 213.265 87.415,213.960 88.630,214.400 89.400 C 214.840 90.170,215.539 91.385,215.953 92.100 C 216.367 92.815,219.808 98.800,223.600 105.400 C 227.392 112.000,230.833 117.985,231.247 118.700 C 231.661 119.415,232.360 120.630,232.800 121.400 C 233.240 122.170,233.939 123.385,234.353 124.100 C 234.767 124.815,238.208 130.800,242.000 137.400 C 245.792 144.000,249.233 149.985,249.647 150.700 C 250.061 151.415,250.760 152.630,251.200 153.400 C 251.640 154.170,252.339 155.385,252.753 156.100 C 253.167 156.815,256.608 162.800,260.400 169.400 C 264.192 176.000,267.633 181.985,268.047 182.700 C 268.461 183.415,269.160 184.630,269.600 185.400 C 270.040 186.170,270.739 187.385,271.153 188.100 C 271.567 188.815,275.008 194.800,278.800 201.400 C 282.592 208.000,286.033 213.985,286.447 214.700 C 286.861 215.415,287.560 216.630,288.000 217.400 C 288.440 218.170,289.139 219.385,289.553 220.100 C 289.967 220.815,293.408 226.800,297.200 233.400 C 300.992 240.000,304.433 245.985,304.847 246.700 C 305.911 248.538,307.062 250.555,308.043 252.300 C 308.506 253.125,309.020 253.980,309.185 254.200 C 309.350 254.420,310.028 255.590,310.692 256.800 C 311.641 258.530,320.595 274.153,324.848 281.500 C 325.261 282.215,325.979 283.475,326.443 284.300 C 326.906 285.125,327.420 285.980,327.585 286.200 C 327.750 286.420,328.428 287.590,329.092 288.800 C 329.756 290.010,332.618 295.050,335.453 300.000 C 341.793 311.071,341.594 310.616,341.628 314.119 C 341.647 316.100,341.764 316.750,342.000 316.200 C 342.991 313.894,341.990 310.136,339.117 305.378 C 338.328 304.070,337.329 302.370,336.899 301.600 C 335.606 299.286,323.653 278.469,321.395 274.600 C 320.240 272.620,318.941 270.370,318.507 269.600 C 317.797 268.338,314.970 263.415,302.888 242.400 C 300.800 238.770,296.661 231.570,293.689 226.400 C 290.716 221.230,286.213 213.400,283.681 209.000 C 281.150 204.600,278.724 200.370,278.291 199.600 C 277.859 198.830,276.560 196.580,275.405 194.600 C 273.764 191.788,265.675 177.719,259.996 167.800 C 259.374 166.713,243.246 138.659,241.600 135.800 C 239.469 132.098,223.722 104.711,222.844 103.178 C 222.270 102.177,219.190 96.801,216.000 91.232 C 207.490 76.375,205.282 74.564,198.494 76.866 M170.800 126.800 C 170.036 127.294,170.858 127.294,172.400 126.800 L 173.400 126.480 172.400 126.446 C 171.850 126.427,171.130 126.587,170.800 126.800 M174.800 126.800 C 176.342 127.294,177.164 127.294,176.400 126.800 C 176.070 126.587,175.350 126.427,174.800 126.446 L 173.800 126.480 174.800 126.800 M178.200 127.951 C 179.519 128.773,181.247 130.554,181.934 131.800 C 182.177 132.240,182.381 132.410,182.388 132.178 C 182.420 131.050,178.576 127.197,177.422 127.201 C 177.190 127.202,177.540 127.540,178.200 127.951 M166.579 129.500 C 165.777 130.325,164.866 131.540,164.554 132.200 C 164.237 132.874,164.210 133.059,164.494 132.622 C 164.772 132.194,165.790 130.979,166.755 129.922 C 168.824 127.655,168.690 127.331,166.579 129.500 M182.644 133.800 C 182.973 135.271,183.202 135.590,183.194 134.567 C 183.191 134.145,183.005 133.530,182.782 133.200 C 182.485 132.762,182.448 132.924,182.644 133.800 M162.308 135.700 C 161.987 136.195,161.507 137.050,161.240 137.600 C 160.560 139.003,161.794 137.506,162.641 135.900 C 163.339 134.574,163.123 134.444,162.308 135.700 M182.842 137.600 C 182.815 137.930,182.352 139.145,181.814 140.300 C 181.277 141.455,180.915 142.400,181.012 142.400 C 181.433 142.400,183.229 138.270,183.070 137.668 C 182.933 137.153,182.881 137.138,182.842 137.600 M159.453 140.391 C 158.321 142.102,158.025 143.118,159.043 141.800 C 159.782 140.844,160.885 138.800,160.663 138.800 C 160.577 138.800,160.032 139.516,159.453 140.391 M156.708 144.900 C 156.387 145.395,155.907 146.250,155.640 146.800 C 154.960 148.203,156.194 146.706,157.041 145.100 C 157.739 143.774,157.523 143.644,156.708 144.900 M179.116 144.888 C 178.251 146.222,177.548 147.600,177.733 147.600 C 178.025 147.600,180.064 144.330,179.884 144.151 C 179.787 144.054,179.442 144.386,179.116 144.888 M154.308 148.900 C 153.433 150.249,152.648 151.856,153.087 151.400 C 153.648 150.817,155.298 148.000,155.079 148.000 C 154.976 148.000,154.629 148.405,154.308 148.900 M176.708 148.900 C 176.387 149.395,175.907 150.250,175.640 150.800 C 174.960 152.203,176.194 150.706,177.041 149.100 C 177.739 147.774,177.523 147.644,176.708 148.900 M174.322 152.900 C 172.711 155.442,171.909 157.015,172.741 156.000 C 173.676 154.859,175.342 152.000,175.072 152.000 C 174.973 152.000,174.635 152.405,174.322 152.900 M151.108 154.100 C 150.787 154.595,150.307 155.450,150.040 156.000 C 149.360 157.403,150.594 155.906,151.441 154.300 C 152.139 152.974,151.923 152.844,151.108 154.100 M148.253 158.791 C 147.121 160.502,146.825 161.518,147.843 160.200 C 148.582 159.244,149.685 157.200,149.463 157.200 C 149.377 157.200,148.832 157.916,148.253 158.791 M171.108 158.100 C 170.787 158.595,170.307 159.450,170.040 160.000 C 169.360 161.403,170.594 159.906,171.441 158.300 C 172.139 156.974,171.923 156.844,171.108 158.100 M145.508 163.300 C 145.187 163.795,144.707 164.650,144.440 165.200 C 143.760 166.603,144.994 165.106,145.841 163.500 C 146.539 162.174,146.323 162.044,145.508 163.300 M167.916 163.288 C 167.051 164.622,166.348 166.000,166.533 166.000 C 166.825 166.000,168.864 162.730,168.684 162.551 C 168.587 162.454,168.242 162.786,167.916 163.288 M143.108 167.300 C 142.233 168.649,141.448 170.256,141.887 169.800 C 142.448 169.217,144.098 166.400,143.879 166.400 C 143.776 166.400,143.429 166.805,143.108 167.300 M165.508 167.300 C 165.187 167.795,164.707 168.650,164.440 169.200 C 163.760 170.603,164.994 169.106,165.841 167.500 C 166.539 166.174,166.323 166.044,165.508 167.300 M163.122 171.300 C 161.511 173.842,160.709 175.415,161.541 174.400 C 162.476 173.259,164.142 170.400,163.872 170.400 C 163.773 170.400,163.435 170.805,163.122 171.300 M197.200 170.800 C 196.667 171.145,196.667 171.188,197.200 171.188 C 197.530 171.188,198.070 171.013,198.400 170.800 C 198.933 170.455,198.933 170.412,198.400 170.412 C 198.070 170.412,197.530 170.587,197.200 170.800 M202.000 170.800 C 202.330 171.013,202.870 171.188,203.200 171.188 C 203.733 171.188,203.733 171.145,203.200 170.800 C 202.870 170.587,202.330 170.412,202.000 170.412 C 201.467 170.412,201.467 170.455,202.000 170.800 M205.032 171.954 C 205.709 172.367,206.853 173.402,207.573 174.253 C 208.294 175.104,208.687 175.440,208.448 175.000 C 207.566 173.377,205.156 171.198,204.246 171.201 C 204.001 171.202,204.354 171.541,205.032 171.954 M139.908 172.500 C 139.587 172.995,139.107 173.850,138.840 174.400 C 138.160 175.803,139.394 174.306,140.241 172.700 C 140.939 171.374,140.723 171.244,139.908 172.500 M192.834 173.856 C 191.935 174.877,191.211 175.912,191.224 176.156 C 191.236 176.400,191.461 176.254,191.724 175.832 C 191.986 175.409,192.806 174.374,193.547 173.532 C 194.287 172.689,194.797 172.000,194.681 172.000 C 194.564 172.000,193.733 172.835,192.834 173.856 M137.053 177.191 C 135.921 178.902,135.625 179.918,136.643 178.600 C 137.382 177.644,138.485 175.600,138.263 175.600 C 138.177 175.600,137.632 176.316,137.053 177.191 M159.908 176.500 C 159.587 176.995,159.107 177.850,158.840 178.400 C 158.160 179.803,159.394 178.306,160.241 176.700 C 160.939 175.374,160.723 175.244,159.908 176.500 M190.214 177.835 C 189.841 178.404,189.627 178.961,189.739 179.072 C 189.850 179.183,190.229 178.718,190.581 178.037 C 191.359 176.533,191.144 176.415,190.214 177.835 M210.986 179.900 C 211.335 180.615,211.706 181.200,211.810 181.200 C 212.208 181.200,211.952 180.563,211.167 179.600 L 210.352 178.600 210.986 179.900 M157.117 181.100 C 156.573 181.925,155.907 183.050,155.637 183.600 L 155.146 184.600 155.953 183.600 C 156.877 182.455,158.537 179.600,158.279 179.600 C 158.184 179.600,157.661 180.275,157.117 181.100 M188.614 180.635 C 188.241 181.204,188.027 181.761,188.139 181.872 C 188.250 181.983,188.629 181.518,188.981 180.837 C 189.759 179.333,189.544 179.215,188.614 180.635 M134.308 181.700 C 133.987 182.195,133.507 183.050,133.240 183.600 C 132.560 185.003,133.794 183.506,134.641 181.900 C 135.339 180.574,135.123 180.444,134.308 181.700 M212.586 182.700 C 212.935 183.415,213.306 184.000,213.410 184.000 C 213.808 184.000,213.552 183.363,212.767 182.400 L 211.952 181.400 212.586 182.700 M187.014 183.435 C 186.641 184.004,186.427 184.561,186.539 184.672 C 186.650 184.783,187.029 184.318,187.381 183.637 C 188.159 182.133,187.944 182.015,187.014 183.435 M214.186 185.500 C 214.535 186.215,214.906 186.800,215.010 186.800 C 215.408 186.800,215.152 186.163,214.367 185.200 L 213.552 184.200 214.186 185.500 M131.908 185.700 C 131.033 187.049,130.248 188.656,130.687 188.200 C 131.248 187.617,132.898 184.800,132.679 184.800 C 132.576 184.800,132.229 185.205,131.908 185.700 M154.308 185.700 C 153.987 186.195,153.507 187.050,153.240 187.600 C 152.560 189.003,153.794 187.506,154.641 185.900 C 155.339 184.574,155.123 184.444,154.308 185.700 M185.414 186.235 C 185.041 186.804,184.827 187.361,184.939 187.472 C 185.050 187.583,185.429 187.118,185.781 186.437 C 186.559 184.933,186.344 184.815,185.414 186.235 M215.786 188.300 C 216.135 189.015,216.506 189.600,216.610 189.600 C 217.008 189.600,216.752 188.963,215.967 188.000 L 215.152 187.000 215.786 188.300 M183.814 189.035 C 183.441 189.604,183.227 190.161,183.339 190.272 C 183.450 190.383,183.829 189.918,184.181 189.237 C 184.959 187.733,184.744 187.615,183.814 189.035 M151.922 189.700 C 150.311 192.242,149.509 193.815,150.341 192.800 C 151.276 191.659,152.942 188.800,152.672 188.800 C 152.573 188.800,152.235 189.205,151.922 189.700 M128.708 190.900 C 128.387 191.395,127.907 192.250,127.640 192.800 C 126.960 194.203,128.194 192.706,129.041 191.100 C 129.739 189.774,129.523 189.644,128.708 190.900 M217.386 191.100 C 217.735 191.815,218.106 192.400,218.210 192.400 C 218.608 192.400,218.352 191.763,217.567 190.800 L 216.752 189.800 217.386 191.100 M182.200 192.000 C 181.859 192.660,181.669 193.200,181.779 193.200 C 181.889 193.200,182.259 192.660,182.600 192.000 C 182.941 191.340,183.131 190.800,183.021 190.800 C 182.911 190.800,182.541 191.340,182.200 192.000 M218.986 193.900 C 219.335 194.615,219.706 195.200,219.810 195.200 C 220.208 195.200,219.952 194.563,219.167 193.600 L 218.352 192.600 218.986 193.900 M180.600 194.800 C 180.259 195.460,180.069 196.000,180.179 196.000 C 180.289 196.000,180.659 195.460,181.000 194.800 C 181.341 194.140,181.531 193.600,181.421 193.600 C 181.311 193.600,180.941 194.140,180.600 194.800 M125.853 195.591 C 124.721 197.302,124.425 198.318,125.443 197.000 C 126.182 196.044,127.285 194.000,127.063 194.000 C 126.977 194.000,126.432 194.716,125.853 195.591 M148.708 194.900 C 148.387 195.395,147.907 196.250,147.640 196.800 C 146.960 198.203,148.194 196.706,149.041 195.100 C 149.739 193.774,149.523 193.644,148.708 194.900 M220.600 196.800 C 220.941 197.460,221.311 198.000,221.421 198.000 C 221.531 198.000,221.341 197.460,221.000 196.800 C 220.659 196.140,220.289 195.600,220.179 195.600 C 220.069 195.600,220.259 196.140,220.600 196.800 M179.000 197.600 C 178.659 198.260,178.469 198.800,178.579 198.800 C 178.689 198.800,179.059 198.260,179.400 197.600 C 179.741 196.940,179.931 196.400,179.821 196.400 C 179.711 196.400,179.341 196.940,179.000 197.600 M145.917 199.500 C 145.373 200.325,144.707 201.450,144.437 202.000 L 143.946 203.000 144.753 202.000 C 145.677 200.855,147.337 198.000,147.079 198.000 C 146.984 198.000,146.461 198.675,145.917 199.500 M222.200 199.600 C 222.541 200.260,222.911 200.800,223.021 200.800 C 223.131 200.800,222.941 200.260,222.600 199.600 C 222.259 198.940,221.889 198.400,221.779 198.400 C 221.669 198.400,221.859 198.940,222.200 199.600 M123.108 200.100 C 122.787 200.595,122.307 201.450,122.040 202.000 C 121.360 203.403,122.594 201.906,123.441 200.300 C 124.139 198.974,123.923 198.844,123.108 200.100 M177.400 200.400 C 177.059 201.060,176.869 201.600,176.979 201.600 C 177.089 201.600,177.459 201.060,177.800 200.400 C 178.141 199.740,178.331 199.200,178.221 199.200 C 178.111 199.200,177.741 199.740,177.400 200.400 M223.800 202.400 C 224.141 203.060,224.511 203.600,224.621 203.600 C 224.731 203.600,224.541 203.060,224.200 202.400 C 223.859 201.740,223.489 201.200,223.379 201.200 C 223.269 201.200,223.459 201.740,223.800 202.400 M175.800 203.200 C 175.459 203.860,175.269 204.400,175.379 204.400 C 175.489 204.400,175.859 203.860,176.200 203.200 C 176.541 202.540,176.731 202.000,176.621 202.000 C 176.511 202.000,176.141 202.540,175.800 203.200 M120.708 204.100 C 119.833 205.449,119.048 207.056,119.487 206.600 C 120.048 206.017,121.698 203.200,121.479 203.200 C 121.376 203.200,121.029 203.605,120.708 204.100 M143.108 204.100 C 142.787 204.595,142.307 205.450,142.040 206.000 C 141.360 207.403,142.594 205.906,143.441 204.300 C 144.139 202.974,143.923 202.844,143.108 204.100 M225.400 205.200 C 225.741 205.860,226.111 206.400,226.221 206.400 C 226.331 206.400,226.141 205.860,225.800 205.200 C 225.459 204.540,225.089 204.000,224.979 204.000 C 224.869 204.000,225.059 204.540,225.400 205.200 M174.186 206.100 L 173.552 207.400 174.367 206.400 C 175.152 205.437,175.408 204.800,175.010 204.800 C 174.906 204.800,174.535 205.385,174.186 206.100 M227.000 208.000 C 227.341 208.660,227.711 209.200,227.821 209.200 C 227.931 209.200,227.741 208.660,227.400 208.000 C 227.059 207.340,226.689 206.800,226.579 206.800 C 226.469 206.800,226.659 207.340,227.000 208.000 M140.722 208.100 C 139.111 210.642,138.309 212.215,139.141 211.200 C 140.076 210.059,141.742 207.200,141.472 207.200 C 141.373 207.200,141.035 207.605,140.722 208.100 M172.600 208.800 C 172.259 209.460,172.069 210.000,172.179 210.000 C 172.289 210.000,172.659 209.460,173.000 208.800 C 173.341 208.140,173.531 207.600,173.421 207.600 C 173.311 207.600,172.941 208.140,172.600 208.800 M117.508 209.300 C 117.187 209.795,116.707 210.650,116.440 211.200 C 115.760 212.603,116.994 211.106,117.841 209.500 C 118.539 208.174,118.323 208.044,117.508 209.300 M228.009 209.900 C 228.014 210.065,228.385 210.650,228.833 211.200 L 229.648 212.200 229.014 210.900 C 228.411 209.665,227.989 209.245,228.009 209.900 M170.986 211.700 L 170.352 213.000 171.167 212.000 C 171.952 211.037,172.208 210.400,171.810 210.400 C 171.706 210.400,171.335 210.985,170.986 211.700 M114.653 213.991 C 113.521 215.702,113.225 216.718,114.243 215.400 C 114.982 214.444,116.085 212.400,115.863 212.400 C 115.777 212.400,115.232 213.116,114.653 213.991 M137.508 213.300 C 137.187 213.795,136.707 214.650,136.440 215.200 C 135.760 216.603,136.994 215.106,137.841 213.500 C 138.539 212.174,138.323 212.044,137.508 213.300 M230.200 213.600 C 230.541 214.260,230.911 214.800,231.021 214.800 C 231.131 214.800,230.941 214.260,230.600 213.600 C 230.259 212.940,229.889 212.400,229.779 212.400 C 229.669 212.400,229.859 212.940,230.200 213.600 M169.400 214.400 C 169.059 215.060,168.869 215.600,168.979 215.600 C 169.089 215.600,169.459 215.060,169.800 214.400 C 170.141 213.740,170.331 213.200,170.221 213.200 C 170.111 213.200,169.741 213.740,169.400 214.400 M231.209 215.500 C 231.214 215.665,231.585 216.250,232.033 216.800 L 232.848 217.800 232.214 216.500 C 231.611 215.265,231.189 214.845,231.209 215.500 M167.786 217.300 L 167.152 218.600 167.967 217.600 C 168.752 216.637,169.008 216.000,168.610 216.000 C 168.506 216.000,168.135 216.585,167.786 217.300 M134.717 217.900 C 134.173 218.725,133.507 219.850,133.237 220.400 L 132.746 221.400 133.553 220.400 C 134.477 219.255,136.137 216.400,135.879 216.400 C 135.784 216.400,135.261 217.075,134.717 217.900 M111.908 218.500 C 111.587 218.995,111.107 219.850,110.840 220.400 C 110.160 221.803,111.394 220.306,112.241 218.700 C 112.939 217.374,112.723 217.244,111.908 218.500 M232.809 218.300 C 232.814 218.465,233.185 219.050,233.633 219.600 L 234.448 220.600 233.814 219.300 C 233.211 218.065,232.789 217.645,232.809 218.300 M166.186 220.100 L 165.552 221.400 166.367 220.400 C 167.152 219.437,167.408 218.800,167.010 218.800 C 166.906 218.800,166.535 219.385,166.186 220.100 M234.409 221.100 C 234.414 221.265,234.785 221.850,235.233 222.400 L 236.048 223.400 235.414 222.100 C 234.811 220.865,234.389 220.445,234.409 221.100 M109.508 222.500 C 108.633 223.849,107.848 225.456,108.287 225.000 C 108.848 224.417,110.498 221.600,110.279 221.600 C 110.176 221.600,109.829 222.005,109.508 222.500 M131.908 222.500 C 131.587 222.995,131.107 223.850,130.840 224.400 C 130.160 225.803,131.394 224.306,132.241 222.700 C 132.939 221.374,132.723 221.244,131.908 222.500 M164.586 222.900 L 163.952 224.200 164.767 223.200 C 165.552 222.237,165.808 221.600,165.410 221.600 C 165.306 221.600,164.935 222.185,164.586 222.900 M236.000 223.736 C 236.000 223.811,236.537 224.846,237.193 226.036 C 237.849 227.226,238.389 227.998,238.393 227.750 C 238.401 227.261,236.436 223.600,236.166 223.600 C 236.075 223.600,236.000 223.661,236.000 223.736 M162.600 226.400 C 162.020 227.544,161.623 228.556,161.717 228.650 C 161.811 228.744,162.354 227.878,162.925 226.725 C 163.496 225.572,163.893 224.560,163.808 224.475 C 163.723 224.390,163.180 225.256,162.600 226.400 M106.717 227.100 C 106.173 227.925,105.514 229.050,105.253 229.600 L 104.777 230.600 105.488 229.634 C 106.507 228.252,108.076 225.600,107.876 225.600 C 107.783 225.600,107.261 226.275,106.717 227.100 M129.522 226.500 C 127.911 229.042,127.109 230.615,127.941 229.600 C 128.876 228.459,130.542 225.600,130.272 225.600 C 130.173 225.600,129.835 226.005,129.522 226.500 M238.663 229.680 C 239.000 231.449,239.200 231.601,239.200 230.090 C 239.200 229.407,239.023 228.738,238.806 228.604 C 238.560 228.452,238.506 228.855,238.663 229.680 M161.314 231.800 C 161.317 232.900,161.395 233.303,161.487 232.695 C 161.579 232.086,161.577 231.186,161.482 230.695 C 161.387 230.203,161.311 230.700,161.314 231.800 M103.453 232.391 C 102.321 234.102,102.025 235.118,103.043 233.800 C 103.782 232.844,104.885 230.800,104.663 230.800 C 104.577 230.800,104.032 231.516,103.453 232.391 M126.308 231.700 C 125.987 232.195,125.507 233.050,125.240 233.600 C 124.560 235.003,125.794 233.506,126.641 231.900 C 127.339 230.574,127.123 230.444,126.308 231.700 M238.854 232.600 C 238.819 233.040,238.689 233.850,238.567 234.400 C 238.375 235.263,238.407 235.303,238.798 234.690 C 239.047 234.299,239.177 233.489,239.086 232.890 C 238.978 232.179,238.897 232.079,238.854 232.600 M123.517 236.300 C 122.973 237.125,122.307 238.250,122.037 238.800 L 121.546 239.800 122.353 238.800 C 123.277 237.655,124.937 234.800,124.679 234.800 C 124.584 234.800,124.061 235.475,123.517 236.300 M237.276 236.961 C 236.823 237.729,235.694 238.907,234.766 239.579 C 233.839 240.250,233.225 240.800,233.402 240.800 C 234.425 240.800,238.823 236.290,238.305 235.772 C 238.192 235.659,237.729 236.194,237.276 236.961 M100.708 236.900 C 100.387 237.395,99.907 238.250,99.640 238.800 C 98.960 240.203,100.194 238.706,101.041 237.100 C 101.739 235.774,101.523 235.644,100.708 236.900 M164.751 239.166 C 165.715 240.065,166.690 240.800,166.918 240.800 C 167.146 240.800,167.258 240.749,167.167 240.686 C 167.075 240.623,166.100 239.888,165.000 239.052 L 163.000 237.532 164.751 239.166 M98.308 240.900 C 97.987 241.395,97.507 242.250,97.240 242.800 C 96.560 244.203,97.794 242.706,98.641 241.100 C 99.339 239.774,99.123 239.644,98.308 240.900 M120.708 240.900 C 120.387 241.395,119.907 242.250,119.640 242.800 C 118.960 244.203,120.194 242.706,121.041 241.100 C 121.739 239.774,121.523 239.644,120.708 240.900 M168.400 241.200 C 168.950 241.376,183.260 241.520,200.200 241.520 C 217.140 241.520,231.450 241.376,232.000 241.200 C 232.550 241.024,218.240 240.880,200.200 240.880 C 182.160 240.880,167.850 241.024,168.400 241.200 M95.517 245.500 C 94.973 246.325,94.314 247.450,94.053 248.000 L 93.577 249.000 94.288 248.034 C 95.307 246.652,96.876 244.000,96.676 244.000 C 96.583 244.000,96.061 244.675,95.517 245.500 M118.322 244.900 C 116.711 247.442,115.909 249.015,116.741 248.000 C 117.676 246.859,119.342 244.000,119.072 244.000 C 118.973 244.000,118.635 244.405,118.322 244.900 M92.253 250.791 C 91.121 252.502,90.825 253.518,91.843 252.200 C 92.582 251.244,93.685 249.200,93.463 249.200 C 93.377 249.200,92.832 249.916,92.253 250.791 M115.108 250.100 C 114.787 250.595,114.307 251.450,114.040 252.000 C 113.360 253.403,114.594 251.906,115.441 250.300 C 116.139 248.974,115.923 248.844,115.108 250.100 M112.253 254.791 C 111.121 256.502,110.825 257.518,111.843 256.200 C 112.582 255.244,113.685 253.200,113.463 253.200 C 113.377 253.200,112.832 253.916,112.253 254.791 M89.516 255.288 C 88.651 256.622,87.948 258.000,88.133 258.000 C 88.425 258.000,90.464 254.730,90.284 254.551 C 90.187 254.454,89.842 254.786,89.516 255.288 M87.108 259.300 C 86.787 259.795,86.307 260.650,86.040 261.200 C 85.360 262.603,86.594 261.106,87.441 259.500 C 88.139 258.174,87.923 258.044,87.108 259.300 M109.516 259.288 C 108.651 260.622,107.948 262.000,108.133 262.000 C 108.425 262.000,110.464 258.730,110.284 258.551 C 110.187 258.454,109.842 258.786,109.516 259.288 M84.253 263.991 C 83.253 265.502,82.815 266.596,83.536 265.780 C 84.092 265.152,85.679 262.400,85.486 262.400 C 85.387 262.400,84.832 263.116,84.253 263.991 M107.046 263.386 C 105.474 265.785,99.212 265.609,182.500 265.501 L 258.600 265.402 182.700 265.300 C 140.955 265.244,106.800 265.099,106.800 264.979 C 106.800 264.859,107.075 264.229,107.410 263.580 C 108.152 262.146,107.934 262.030,107.046 263.386 M261.922 266.636 C 263.066 267.206,264.541 268.327,265.201 269.127 C 265.860 269.928,266.400 270.382,266.400 270.138 C 266.400 269.131,261.686 265.600,260.341 265.600 C 260.067 265.600,260.779 266.066,261.922 266.636 M81.849 268.615 C 81.712 268.973,81.615 269.566,81.634 269.933 C 81.653 270.300,81.827 270.069,82.021 269.420 C 82.398 268.158,82.265 267.533,81.849 268.615 M81.628 275.033 C 81.644 275.895,81.817 276.960,82.014 277.400 C 82.248 277.922,82.288 277.437,82.132 276.000 C 81.843 273.358,81.589 272.870,81.628 275.033 M266.623 277.600 C 266.132 279.219,264.511 281.362,263.181 282.147 C 262.501 282.549,262.042 282.976,262.161 283.095 C 262.951 283.885,267.520 278.341,267.098 277.105 C 267.003 276.827,266.789 277.050,266.623 277.600 M82.409 278.719 C 82.398 279.378,86.194 283.200,86.860 283.200 C 87.134 283.200,86.602 282.644,85.679 281.965 C 84.755 281.286,83.996 280.611,83.991 280.465 C 83.973 279.933,82.418 278.216,82.409 278.719 M132.300 284.300 C 155.455 284.357,193.345 284.357,216.500 284.300 C 239.655 284.243,220.710 284.196,174.400 284.196 C 128.090 284.196,109.145 284.243,132.300 284.300 M59.579 308.532 C 57.182 309.630,54.381 312.814,54.418 314.400 C 54.426 314.730,54.786 314.290,55.219 313.423 C 56.347 311.162,57.522 310.020,59.800 308.969 C 60.900 308.461,61.530 308.050,61.200 308.056 C 60.870 308.061,60.141 308.275,59.579 308.532 M54.021 316.200 C 53.622 320.737,55.825 324.650,59.791 326.452 C 61.838 327.382,331.838 327.636,334.954 326.711 C 338.127 325.769,341.689 320.986,341.568 317.829 C 341.533 316.912,341.101 317.937,340.650 320.008 C 340.263 321.786,338.087 324.603,336.318 325.616 L 334.600 326.600 199.800 326.719 C 125.660 326.785,63.909 326.729,62.575 326.596 C 57.996 326.136,54.825 322.662,54.363 317.600 C 54.233 316.170,54.078 315.540,54.021 316.200 " stroke="none" fill="#2e285c" fill-rule="evenodd"></path><path id="path4" d="M207.200 77.725 C 207.200 77.794,207.785 78.379,208.500 79.025 L 209.800 80.200 208.625 78.900 C 207.530 77.688,207.200 77.416,207.200 77.725 M172.500 126.287 C 173.105 126.378,174.095 126.378,174.700 126.287 C 175.305 126.195,174.810 126.120,173.600 126.120 C 172.390 126.120,171.895 126.195,172.500 126.287 M169.203 127.106 C 167.372 128.008,165.200 130.209,163.957 132.422 C 163.408 133.400,162.634 134.740,162.237 135.400 C 161.635 136.402,161.628 136.468,162.194 135.800 C 162.568 135.360,163.400 134.079,164.045 132.953 C 165.581 130.269,167.502 128.329,169.656 127.285 C 170.615 126.820,171.220 126.435,171.000 126.429 C 170.780 126.423,169.971 126.728,169.203 127.106 M177.440 127.158 C 178.342 127.575,179.770 128.610,180.612 129.458 C 182.018 130.874,182.072 130.896,181.265 129.728 C 180.319 128.359,178.410 127.041,176.800 126.645 C 176.250 126.510,176.538 126.740,177.440 127.158 M182.483 132.300 C 182.737 132.905,183.065 134.570,183.210 136.000 L 183.474 138.600 183.537 136.349 C 183.592 134.401,182.763 131.200,182.205 131.200 C 182.103 131.200,182.228 131.695,182.483 132.300 M160.492 138.135 C 160.059 138.869,159.389 139.994,159.005 140.635 L 158.305 141.800 159.133 140.800 C 160.079 139.657,161.744 136.800,161.465 136.800 C 161.363 136.800,160.925 137.401,160.492 138.135 M181.297 141.910 C 180.580 143.129,180.050 144.183,180.119 144.252 C 180.188 144.321,180.844 143.388,181.578 142.178 C 182.311 140.968,182.841 139.914,182.756 139.836 C 182.670 139.757,182.013 140.691,181.297 141.910 M157.624 142.918 C 157.323 143.403,156.815 144.205,156.493 144.700 C 156.171 145.195,155.995 145.600,156.101 145.600 C 156.383 145.600,158.486 142.353,158.315 142.181 C 158.235 142.102,157.924 142.433,157.624 142.918 M179.025 145.818 C 178.658 146.377,177.837 147.719,177.200 148.800 C 176.563 149.881,175.729 151.268,175.347 151.882 C 174.966 152.497,174.851 152.820,175.093 152.600 C 175.458 152.268,176.370 150.833,179.864 145.100 C 180.359 144.289,179.604 144.934,179.025 145.818 M153.586 149.500 C 152.432 151.425,151.209 153.450,150.870 154.000 C 150.531 154.550,150.451 154.820,150.693 154.600 C 151.448 153.913,156.199 146.000,155.856 146.000 C 155.762 146.000,154.740 147.575,153.586 149.500 M173.117 155.500 C 171.885 157.369,171.117 158.800,171.346 158.800 C 171.442 158.800,171.875 158.199,172.308 157.465 C 172.741 156.731,173.410 155.651,173.794 155.065 C 174.178 154.479,174.405 154.000,174.299 154.000 C 174.193 154.000,173.661 154.675,173.117 155.500 M149.292 156.535 C 148.859 157.269,148.189 158.394,147.805 159.035 L 147.105 160.200 147.933 159.200 C 148.879 158.057,150.544 155.200,150.265 155.200 C 150.163 155.200,149.725 155.801,149.292 156.535 M169.853 160.791 C 169.274 161.667,168.800 162.517,168.800 162.680 C 168.800 162.844,169.042 162.623,169.339 162.189 C 170.641 160.281,171.278 159.200,171.099 159.200 C 170.993 159.200,170.432 159.916,169.853 160.791 M146.424 161.318 C 146.123 161.803,145.615 162.605,145.293 163.100 C 144.971 163.595,144.795 164.000,144.901 164.000 C 145.183 164.000,147.286 160.753,147.115 160.581 C 147.035 160.502,146.724 160.833,146.424 161.318 M167.825 164.218 C 167.458 164.777,166.637 166.119,166.000 167.200 C 165.363 168.281,164.529 169.668,164.147 170.282 C 163.766 170.897,163.651 171.220,163.893 171.000 C 164.258 170.668,165.170 169.233,168.664 163.500 C 169.159 162.689,168.404 163.334,167.825 164.218 M142.386 167.900 C 141.232 169.825,140.009 171.850,139.670 172.400 C 139.331 172.950,139.251 173.220,139.493 173.000 C 140.248 172.313,144.999 164.400,144.656 164.400 C 144.562 164.400,143.540 165.975,142.386 167.900 M199.107 170.290 C 199.826 170.379,200.906 170.377,201.507 170.286 C 202.108 170.195,201.520 170.122,200.200 170.124 C 198.880 170.126,198.388 170.201,199.107 170.290 M195.800 171.027 C 194.384 171.761,192.110 173.868,191.512 175.000 C 191.279 175.440,191.830 174.967,192.736 173.948 C 193.642 172.930,195.152 171.724,196.091 171.268 C 197.031 170.813,197.620 170.432,197.400 170.422 C 197.180 170.413,196.460 170.685,195.800 171.027 M204.000 171.069 C 204.770 171.402,205.757 171.972,206.193 172.337 C 206.951 172.971,206.960 172.966,206.393 172.238 C 205.835 171.521,203.599 170.361,202.913 170.433 C 202.741 170.451,203.230 170.737,204.000 171.069 M161.917 173.900 C 160.685 175.769,159.917 177.200,160.146 177.200 C 160.242 177.200,160.675 176.599,161.108 175.865 C 161.541 175.131,162.210 174.051,162.594 173.465 C 162.978 172.879,163.205 172.400,163.099 172.400 C 162.993 172.400,162.461 173.075,161.917 173.900 M208.428 175.000 C 210.085 177.549,210.812 178.291,209.604 176.200 C 209.095 175.320,208.330 174.240,207.904 173.800 C 207.477 173.360,207.713 173.900,208.428 175.000 M138.092 174.935 C 137.659 175.669,136.989 176.794,136.605 177.435 L 135.905 178.600 136.733 177.600 C 137.679 176.457,139.344 173.600,139.065 173.600 C 138.963 173.600,138.525 174.201,138.092 174.935 M190.253 177.300 L 189.533 178.600 190.358 177.600 C 191.089 176.713,191.414 176.000,191.086 176.000 C 191.024 176.000,190.649 176.585,190.253 177.300 M159.108 178.500 C 158.233 179.849,157.448 181.456,157.887 181.000 C 158.448 180.417,160.098 177.600,159.879 177.600 C 159.776 177.600,159.429 178.005,159.108 178.500 M210.415 178.200 C 210.417 178.420,210.786 179.050,211.236 179.600 C 211.779 180.264,211.915 180.331,211.640 179.800 C 210.966 178.495,210.412 177.772,210.415 178.200 M135.224 179.718 C 134.923 180.203,134.415 181.005,134.093 181.500 C 133.771 181.995,133.595 182.400,133.701 182.400 C 133.983 182.400,136.086 179.153,135.915 178.981 C 135.835 178.902,135.524 179.233,135.224 179.718 M188.653 180.100 L 187.933 181.400 188.758 180.400 C 189.489 179.513,189.814 178.800,189.486 178.800 C 189.424 178.800,189.049 179.385,188.653 180.100 M212.015 181.000 C 212.017 181.220,212.386 181.850,212.836 182.400 C 213.379 183.064,213.515 183.131,213.240 182.600 C 212.566 181.295,212.012 180.572,212.015 181.000 M156.625 182.618 C 156.258 183.177,155.437 184.519,154.800 185.600 C 154.163 186.681,153.329 188.068,152.947 188.682 C 152.566 189.297,152.451 189.620,152.693 189.400 C 153.058 189.068,153.970 187.633,157.464 181.900 C 157.959 181.089,157.204 181.734,156.625 182.618 M187.053 182.900 L 186.333 184.200 187.158 183.200 C 187.889 182.313,188.214 181.600,187.886 181.600 C 187.824 181.600,187.449 182.185,187.053 182.900 M131.186 186.300 C 130.032 188.225,128.809 190.250,128.470 190.800 C 128.131 191.350,128.051 191.620,128.293 191.400 C 129.048 190.713,133.799 182.800,133.456 182.800 C 133.362 182.800,132.340 184.375,131.186 186.300 M213.615 183.800 C 213.617 184.020,213.986 184.650,214.436 185.200 C 214.979 185.864,215.115 185.931,214.840 185.400 C 214.166 184.095,213.612 183.372,213.615 183.800 M185.453 185.700 L 184.733 187.000 185.558 186.000 C 186.289 185.113,186.614 184.400,186.286 184.400 C 186.224 184.400,185.849 184.985,185.453 185.700 M215.215 186.600 C 215.217 186.820,215.586 187.450,216.036 188.000 C 216.579 188.664,216.715 188.731,216.440 188.200 C 215.766 186.895,215.212 186.172,215.215 186.600 M183.853 188.500 L 183.133 189.800 183.958 188.800 C 184.689 187.913,185.014 187.200,184.686 187.200 C 184.624 187.200,184.249 187.785,183.853 188.500 M216.815 189.400 C 216.817 189.620,217.186 190.250,217.636 190.800 C 218.179 191.464,218.315 191.531,218.040 191.000 C 217.366 189.695,216.812 188.972,216.815 189.400 M175.658 202.797 C 167.292 217.440,166.120 219.554,166.677 219.000 C 167.245 218.435,183.242 190.309,183.085 190.152 C 183.014 190.081,179.672 195.771,175.658 202.797 M150.717 192.300 C 149.485 194.169,148.717 195.600,148.946 195.600 C 149.042 195.600,149.475 194.999,149.908 194.265 C 150.341 193.531,151.010 192.451,151.394 191.865 C 151.778 191.279,152.005 190.800,151.899 190.800 C 151.793 190.800,151.261 191.475,150.717 192.300 M126.892 193.335 C 126.459 194.069,125.789 195.194,125.405 195.835 L 124.705 197.000 125.533 196.000 C 126.479 194.857,128.144 192.000,127.865 192.000 C 127.763 192.000,127.325 192.601,126.892 193.335 M218.415 192.200 C 218.417 192.420,218.786 193.050,219.236 193.600 C 219.779 194.264,219.915 194.331,219.640 193.800 C 218.966 192.495,218.412 191.772,218.415 192.200 M220.045 195.040 C 220.359 195.932,235.357 221.976,235.484 221.849 C 235.616 221.718,220.543 195.190,220.117 194.805 C 219.992 194.692,219.960 194.798,220.045 195.040 M147.908 196.900 C 147.033 198.249,146.248 199.856,146.687 199.400 C 147.248 198.817,148.898 196.000,148.679 196.000 C 148.576 196.000,148.229 196.405,147.908 196.900 M124.024 198.118 C 123.723 198.603,123.215 199.405,122.893 199.900 C 122.571 200.395,122.395 200.800,122.501 200.800 C 122.783 200.800,124.886 197.553,124.715 197.381 C 124.635 197.302,124.324 197.633,124.024 198.118 M145.425 201.018 C 145.058 201.577,144.237 202.919,143.600 204.000 C 142.963 205.081,142.129 206.468,141.747 207.082 C 141.366 207.697,141.251 208.020,141.493 207.800 C 141.858 207.468,142.770 206.033,146.264 200.300 C 146.759 199.489,146.004 200.134,145.425 201.018 M119.986 204.700 C 118.832 206.625,117.609 208.650,117.270 209.200 C 116.931 209.750,116.851 210.020,117.093 209.800 C 117.848 209.113,122.599 201.200,122.256 201.200 C 122.162 201.200,121.140 202.775,119.986 204.700 M139.517 210.700 C 138.285 212.569,137.517 214.000,137.746 214.000 C 137.842 214.000,138.275 213.399,138.708 212.665 C 139.141 211.931,139.810 210.851,140.194 210.265 C 140.578 209.679,140.805 209.200,140.699 209.200 C 140.593 209.200,140.061 209.875,139.517 210.700 M115.446 212.200 C 115.091 212.750,114.509 213.695,114.153 214.300 L 113.505 215.400 114.310 214.426 C 115.260 213.276,116.521 211.200,116.269 211.200 C 116.171 211.200,115.801 211.650,115.446 212.200 M136.708 215.300 C 135.833 216.649,135.048 218.256,135.487 217.800 C 136.048 217.217,137.698 214.400,137.479 214.400 C 137.376 214.400,137.029 214.805,136.708 215.300 M112.824 216.518 C 112.523 217.003,112.015 217.805,111.693 218.300 C 111.371 218.795,111.195 219.200,111.301 219.200 C 111.583 219.200,113.686 215.953,113.515 215.781 C 113.435 215.702,113.124 216.033,112.824 216.518 M134.225 219.418 C 133.858 219.977,133.037 221.319,132.400 222.400 C 131.763 223.481,130.929 224.868,130.547 225.482 C 130.166 226.097,130.051 226.420,130.293 226.200 C 130.658 225.868,131.570 224.433,135.064 218.700 C 135.559 217.889,134.804 218.534,134.225 219.418 M108.786 223.100 C 107.632 225.025,106.409 227.050,106.070 227.600 C 105.731 228.150,105.651 228.420,105.893 228.200 C 106.648 227.513,111.399 219.600,111.056 219.600 C 110.962 219.600,109.940 221.175,108.786 223.100 M165.014 221.435 C 164.641 222.004,164.405 222.538,164.489 222.622 C 164.573 222.707,164.958 222.241,165.344 221.588 C 166.206 220.128,165.948 220.009,165.014 221.435 M128.317 229.100 C 127.085 230.969,126.317 232.400,126.546 232.400 C 126.642 232.400,127.075 231.799,127.508 231.065 C 127.941 230.331,128.610 229.251,128.994 228.665 C 129.378 228.079,129.605 227.600,129.499 227.600 C 129.393 227.600,128.861 228.275,128.317 229.100 M161.053 229.636 C 160.914 230.331,160.822 231.463,160.849 232.150 C 160.878 232.894,161.038 232.440,161.243 231.028 C 161.611 228.504,161.476 227.518,161.053 229.636 M239.328 231.600 C 239.328 233.030,239.401 233.615,239.489 232.900 C 239.578 232.185,239.578 231.015,239.489 230.300 C 239.401 229.585,239.328 230.170,239.328 231.600 M104.246 230.600 C 103.891 231.150,103.309 232.095,102.953 232.700 L 102.305 233.800 103.110 232.826 C 104.060 231.676,105.321 229.600,105.069 229.600 C 104.971 229.600,104.601 230.050,104.246 230.600 M125.508 233.700 C 124.633 235.049,123.848 236.656,124.287 236.200 C 124.848 235.617,126.498 232.800,126.279 232.800 C 126.176 232.800,125.829 233.205,125.508 233.700 M161.218 234.222 C 161.178 236.087,165.560 241.204,167.191 241.198 C 167.526 241.196,167.260 240.914,166.601 240.570 C 164.372 239.408,162.660 237.386,161.752 234.846 C 161.418 233.911,161.229 233.690,161.218 234.222 M101.624 234.918 C 101.323 235.403,100.815 236.205,100.493 236.700 C 100.171 237.195,99.995 237.600,100.101 237.600 C 100.383 237.600,102.486 234.353,102.315 234.181 C 102.235 234.102,101.924 234.433,101.624 234.918 M236.152 238.616 C 234.682 240.143,233.688 240.822,232.633 241.020 C 231.824 241.172,231.248 241.382,231.353 241.486 C 232.164 242.297,236.926 239.207,238.022 237.159 C 238.579 236.118,238.484 236.192,236.152 238.616 M123.025 237.818 C 122.658 238.377,121.837 239.719,121.200 240.800 C 120.563 241.881,119.729 243.268,119.347 243.882 C 118.966 244.497,118.851 244.820,119.093 244.600 C 119.458 244.268,120.370 242.833,123.864 237.100 C 124.359 236.289,123.604 236.934,123.025 237.818 M99.152 238.900 C 98.890 239.395,98.415 240.250,98.096 240.800 C 97.539 241.759,97.543 241.767,98.188 241.000 C 98.986 240.052,100.105 238.000,99.824 238.000 C 99.716 238.000,99.414 238.405,99.152 238.900 M96.492 243.335 C 96.059 244.069,95.389 245.194,95.005 245.835 L 94.305 247.000 95.133 246.000 C 96.079 244.857,97.744 242.000,97.465 242.000 C 97.363 242.000,96.925 242.601,96.492 243.335 M117.117 247.500 C 115.885 249.369,115.117 250.800,115.346 250.800 C 115.442 250.800,115.875 250.199,116.308 249.465 C 116.741 248.731,117.410 247.651,117.794 247.065 C 118.178 246.479,118.405 246.000,118.299 246.000 C 118.193 246.000,117.661 246.675,117.117 247.500 M93.046 249.000 C 92.691 249.550,92.109 250.495,91.753 251.100 L 91.105 252.200 91.910 251.226 C 92.860 250.076,94.121 248.000,93.869 248.000 C 93.771 248.000,93.401 248.450,93.046 249.000 M114.308 252.100 C 113.433 253.449,112.648 255.056,113.087 254.600 C 113.648 254.017,115.298 251.200,115.079 251.200 C 114.976 251.200,114.629 251.605,114.308 252.100 M90.424 253.318 C 90.123 253.803,89.615 254.605,89.293 255.100 C 88.971 255.595,88.795 256.000,88.901 256.000 C 89.183 256.000,91.286 252.753,91.115 252.581 C 91.035 252.502,90.724 252.833,90.424 253.318 M111.453 256.791 C 110.874 257.667,110.400 258.517,110.400 258.680 C 110.400 258.844,110.642 258.623,110.939 258.189 C 112.241 256.281,112.878 255.200,112.699 255.200 C 112.593 255.200,112.032 255.916,111.453 256.791 M87.952 257.300 C 87.690 257.795,87.215 258.650,86.896 259.200 C 86.339 260.159,86.343 260.167,86.988 259.400 C 87.786 258.452,88.905 256.400,88.624 256.400 C 88.516 256.400,88.214 256.805,87.952 257.300 M109.446 260.200 C 109.091 260.750,108.509 261.695,108.153 262.300 L 107.505 263.400 108.310 262.426 C 109.260 261.276,110.521 259.200,110.269 259.200 C 110.171 259.200,109.801 259.650,109.446 260.200 M85.292 261.735 C 84.859 262.469,84.189 263.594,83.805 264.235 L 83.105 265.400 83.933 264.400 C 84.879 263.257,86.544 260.400,86.265 260.400 C 86.163 260.400,85.725 261.001,85.292 261.735 M106.800 264.893 C 106.800 265.054,141.405 265.234,183.700 265.293 C 269.916 265.413,261.238 265.091,264.924 268.308 C 266.557 269.733,266.569 269.737,265.400 268.450 C 264.740 267.723,263.390 266.650,262.400 266.064 L 260.600 265.000 183.700 264.800 C 141.405 264.690,106.800 264.732,106.800 264.893 M82.051 267.380 C 81.181 269.231,80.803 275.954,81.506 277.064 C 81.668 277.318,81.739 275.677,81.665 273.416 C 81.550 269.895,81.650 269.059,82.362 267.583 C 82.820 266.636,83.129 265.795,83.049 265.715 C 82.968 265.635,82.519 266.384,82.051 267.380 M266.650 270.600 C 266.817 271.040,267.069 272.840,267.210 274.600 L 267.465 277.800 267.518 274.800 C 267.555 272.726,267.382 271.491,266.958 270.800 C 266.588 270.197,266.466 270.117,266.650 270.600 M265.233 280.758 C 264.481 281.771,264.175 282.346,264.552 282.036 C 265.371 281.361,266.947 279.203,266.744 279.035 C 266.665 278.970,265.985 279.745,265.233 280.758 M82.736 279.845 C 83.776 281.872,87.787 284.453,89.749 284.359 C 90.363 284.330,90.265 284.237,89.400 284.028 C 87.163 283.487,85.179 282.302,83.738 280.648 C 82.948 279.742,82.497 279.380,82.736 279.845 M261.000 283.712 C 260.380 284.090,241.107 284.246,175.400 284.406 L 90.600 284.613 175.400 284.606 C 254.664 284.600,260.278 284.555,261.400 283.916 C 262.060 283.540,262.420 283.230,262.200 283.228 C 261.980 283.226,261.440 283.444,261.000 283.712 M317.047 306.579 C 317.262 307.138,304.803 307.209,190.143 307.300 L 63.000 307.401 190.300 307.501 C 322.250 307.604,319.516 307.632,317.205 306.203 C 316.978 306.063,316.911 306.223,317.047 306.579 M129.900 327.500 C 167.135 327.556,228.065 327.556,265.300 327.500 C 302.535 327.444,272.070 327.398,197.600 327.398 C 123.130 327.398,92.665 327.444,129.900 327.500 " stroke="none" fill="#2c043c" fill-rule="evenodd"></path></g></svg>